<svg xmlns="http://www.w3.org/2000/svg" width="305.372" height="394.535" viewBox="0 0 305.372 394.535">
  <path id="Caminho_3" data-name="Caminho 3" d="M540.362,1242.77v205.2h107.26s39.79,3.408,39.79-30.355c-.443-20.336,0-52.582,0-52.582" transform="translate(-457.121 -1133.678)" fill="none" stroke="#073b4c" stroke-width="36"/>
  <path id="Caminho_4" data-name="Caminho 4" d="M647.448,1247.555l-88.7,83.911,88.7,77.11" transform="translate(-457.121 -1133.678)" fill="none" stroke="#118ab2" stroke-width="36"/>
  <path id="Caminho_5" data-name="Caminho 5" d="M524.2,1206.662H641.357s45.847-6.533,47.15,55.338c.778,36.954,0,68.659,0,68.659" transform="translate(-457.121 -1133.678)" fill="none" stroke="#073b4c" stroke-width="36"/>
  <path id="Caminho_2" data-name="Caminho 2" d="M475.121,1151.678v358.535H686.646s57.684-1.5,57.826-62.48,0-80.2,0-80.2-10-36.162-57.826-37.625-31.661,0-40.111,0h.249c38.932.017,95.377,8.372,97.649-61.614.062-1.9.077-4.06.039-6.3-.566-32.822,0-54.619,0-54.619s-8.468-55.7-66.266-55.7Z" transform="translate(-457.121 -1133.678)" fill="none" stroke="#118ab2" stroke-linejoin="bevel" stroke-width="36"/>
  <path id="Caminho_6" data-name="Caminho 6" d="M627.908,1312.9l-22.2,17.465s16.381,13.272,22.2,17.406C628.012,1347.848,627.908,1312.9,627.908,1312.9Z" transform="translate(-438.294 -1133.942)" fill="#118ab2" stroke="#118ab2" stroke-width="1"/>
</svg>
